<svg width="225" height="93" viewBox="0 0 225 93" fill="none" xmlns="http://www.w3.org/2000/svg">
<rect opacity="0.1" x="0.698975" y="1.00476" width="223.298" height="90.5502" stroke="#2E4D59"/>
<path d="M111.779 53.205H106.665V39.2862H111.779V53.205ZM107.164 52.6966H111.279V39.7946H107.164V52.6966ZM118.894 53.205H113.883V39.2862H124.352C125.852 39.1625 127.346 39.5912 128.561 40.4942C129.084 40.9816 129.49 41.5855 129.746 42.2588C130.002 42.932 130.102 43.6565 130.038 44.3756C130.113 45.6182 129.725 46.8437 128.951 47.8075C128.035 48.8772 126.511 49.4284 124.421 49.4477C123.895 49.4619 119.951 49.4477 118.897 49.4477L118.894 53.205ZM114.379 52.6966H118.394V48.9342H118.645C118.696 48.9342 123.817 48.9504 124.409 48.9342C126.356 48.9169 127.755 48.4257 128.573 47.4668C129.262 46.5948 129.604 45.4912 129.532 44.3746C129.593 43.7302 129.508 43.0802 129.283 42.4748C129.058 41.8694 128.699 41.325 128.234 40.8837C127.106 40.0601 125.728 39.6735 124.345 39.7936H114.382L114.379 52.6966ZM123.292 46.3208H118.361V42.532H123.324C123.676 42.4825 124.035 42.5243 124.367 42.6535C124.698 42.7828 124.993 42.9953 125.222 43.2713C125.43 43.6241 125.529 44.0329 125.504 44.4437C125.523 44.8251 125.442 45.2048 125.269 45.544C125.032 45.8347 124.726 46.0584 124.38 46.1938C124.033 46.3291 123.659 46.3715 123.292 46.3168V46.3208ZM118.86 45.8124H123.292C124.111 45.8124 124.618 45.6385 124.843 45.2806C124.966 45.0204 125.022 44.7323 125.005 44.4437C125.027 44.1407 124.963 43.8378 124.82 43.5712L124.814 43.5621C124.576 43.2062 124.104 43.0404 123.324 43.0404H118.86V45.8124ZM139.152 53.4104C134.668 53.4104 131.991 52.2766 130.971 49.9449C130.804 49.4946 130.691 49.0255 130.634 48.5478L130.59 48.2549H135.925L135.96 48.4685C136.001 48.6852 136.092 48.8893 136.224 49.0643C136.435 49.3236 137.138 49.7589 139.471 49.7589C142.275 49.7589 142.275 49.2575 142.275 48.9881C142.275 48.5335 141.951 48.378 139.664 48.1298L139.229 48.0881C138.368 48.0058 137.28 47.901 136.782 47.8573C132.587 47.4709 130.714 46.1439 130.714 43.556C130.714 40.8379 133.902 39.0818 138.835 39.0818C142.859 39.0818 145.452 40.1617 146.539 42.2941C146.797 42.7901 146.971 43.3272 147.052 43.8824L147.087 44.1681H141.745L141.723 43.9383C141.702 43.7587 141.627 43.5902 141.507 43.4563C141.308 43.1838 140.676 42.7333 138.717 42.7333C136.311 42.7333 135.979 43.0465 135.979 43.3841C135.979 43.8346 136.739 43.9943 139.175 44.2597C140.191 44.3441 141.824 44.5149 142.383 44.584C145.9 44.9725 147.469 46.2669 147.469 48.7827C147.47 50.8927 146.027 53.4104 139.152 53.4104ZM131.173 48.7633C131.223 49.0987 131.309 49.4274 131.43 49.7436C132.358 51.8678 134.885 52.902 139.152 52.902C142.72 52.902 146.974 52.1902 146.974 48.7827C146.974 46.5527 145.585 45.4484 142.33 45.0894C141.771 45.0203 140.148 44.8505 139.134 44.765C136.537 44.4783 135.482 44.3258 135.482 43.3841C135.482 42.41 136.619 42.2249 138.719 42.2249C140.378 42.2249 141.449 42.53 141.904 43.1452C142.028 43.2967 142.122 43.4715 142.18 43.6597H146.508C146.421 43.2664 146.284 42.8866 146.099 42.53C145.1 40.5786 142.66 39.5902 138.837 39.5902C134.207 39.5902 131.216 41.147 131.216 43.556C131.216 45.8541 132.895 46.9889 136.828 47.3509C137.327 47.3946 138.415 47.4994 139.278 47.5828L139.716 47.6245C141.84 47.8522 142.777 47.9946 142.777 48.9881C142.777 50.0578 141.565 50.2673 139.473 50.2673C137.537 50.2673 136.315 49.9714 135.842 49.3887C135.697 49.2029 135.587 48.9907 135.519 48.7633H131.173ZM156.958 53.3931C151.744 53.3931 148.867 51.2465 148.867 47.3479V39.2862H153.913V47.3479C153.913 48.685 155.089 49.4518 157.137 49.4518C159.095 49.4518 160.311 48.6515 160.311 47.3652V39.2862H165.304V47.775C165.309 51.3452 162.264 53.3931 156.955 53.3931H156.958ZM149.367 39.7946V47.3479C149.367 52.1658 154.119 52.8847 156.958 52.8847C159.892 52.8847 164.813 52.2207 164.813 47.775V39.7946H160.818V47.3652C160.818 48.9413 159.376 49.9602 157.145 49.9602C154.814 49.9602 153.422 48.984 153.422 47.3479V39.7946H149.367ZM186.467 53.205H181.705V46.9208L179.004 53.205H174.85L172.177 46.933V53.205H167.398V39.2862H173.684L176.95 46.9604L180.374 39.2862H186.473L186.467 53.205ZM182.204 52.6966H185.967V39.7946H180.692L176.934 48.2132L173.353 39.7946H167.893V52.6966H171.674V44.4864L175.169 52.6996H178.665L182.198 44.4986L182.204 52.6966ZM42.224 39.5404H37.6755V52.9508H50.2443V49.3806H42.224V39.5404ZM59.4251 39.2353C53.6192 39.2353 50.5659 42.0368 50.5659 46.15C50.5659 50.7971 53.771 53.1542 59.4251 53.1542C65.6495 53.1542 68.2674 50.4208 68.2674 46.15C68.2674 41.8131 65.314 39.2333 59.4251 39.2333V39.2353ZM59.4081 42.7201C59.8034 42.7182 60.1984 42.7417 60.5907 42.7903L55.5059 47.9671C55.2653 47.413 55.1479 46.8116 55.1623 46.2059C55.1623 44.102 56.203 42.7181 59.4081 42.7181V42.7201ZM59.4251 49.7243C59.0443 49.726 58.6637 49.7042 58.2855 49.6592L63.3793 44.4732C63.6109 45.0181 63.7218 45.6084 63.7039 46.2019C63.7039 48.2488 62.7451 49.7222 59.4251 49.7222V49.7243ZM77.2794 47.8939H81.9607C81.8918 48.2247 81.7482 48.5345 81.5412 48.7989C80.5707 49.6039 79.3321 49.9956 78.0844 49.8921C77.4564 49.9605 76.8214 49.8906 76.2222 49.6873C75.623 49.484 75.0737 49.1519 74.6117 48.7135C74.1383 48.0067 73.9135 47.1578 73.9734 46.3046C73.8968 45.4105 74.1413 44.5185 74.6616 43.7939C75.3158 43.0415 76.4235 42.7171 78.0515 42.7171C79.0873 42.6298 80.1219 42.9006 80.9879 43.4858C81.2609 43.7066 81.4649 44.0033 81.5752 44.34H85.9169C85.8854 43.7853 85.7543 43.2411 85.5304 42.7344C84.4907 40.5817 82.0736 39.3004 77.9636 39.3004C74.3889 39.3004 71.9898 40.4108 70.6645 42.0856C69.7891 43.295 69.3398 44.7696 69.389 46.271C69.3324 47.8065 69.7701 49.3187 70.6355 50.5774C71.9449 52.3061 74.2771 53.1562 77.0797 53.1562C78.9429 53.2885 80.7935 52.7572 82.3143 51.6533L82.4322 52.9508H86.0388V45.007H77.2794V47.8939ZM96.2753 39.2323C90.4704 39.2323 87.4161 42.0337 87.4161 46.147C87.4161 50.794 90.6202 53.1511 96.2753 53.1511C102.501 53.1511 105.119 50.4178 105.119 46.147C105.119 41.8131 102.165 39.2333 96.2753 39.2333V39.2323ZM96.2594 42.7171C96.6442 42.7159 97.0287 42.7383 97.411 42.7842L92.3461 47.9438C92.113 47.3958 91.9995 46.8029 92.0135 46.2059C92.0095 44.102 93.0543 42.7181 96.2594 42.7181V42.7171ZM96.2753 49.7212C95.8844 49.723 95.4938 49.6998 95.1058 49.6521L100.217 44.4478C100.457 45 100.572 45.6002 100.553 46.2039C100.555 48.2488 99.6003 49.7222 96.2753 49.7222V49.7212Z" fill="#181817"/>
</svg>
